<svg width="24" height="24" viewBox="0 0 24 24" fill="none" xmlns="http://www.w3.org/2000/svg">
<path d="M4.95619 9.05519H19.1794C19.5561 9.05519 19.8574 8.76139 19.8574 8.38471C19.8574 8.01557 19.5561 7.71423 19.1794 7.71423H4.95619C4.57951 7.71423 4.28571 8.01557 4.28571 8.38471C4.28571 8.76139 4.57951 9.05519 4.95619 9.05519ZM4.95619 13.0027H13.4012C13.7779 13.0027 14.0792 12.7089 14.0792 12.3323C14.0792 11.9556 13.7779 11.6618 13.4012 11.6618H4.95619C4.57951 11.6618 4.28571 11.9556 4.28571 12.3323C4.28571 12.7089 4.57951 13.0027 4.95619 13.0027ZM4.95619 16.9503H19.1794C19.5561 16.9503 19.8574 16.6565 19.8574 16.2798C19.8574 15.9031 19.5561 15.6093 19.1794 15.6093H4.95619C4.57951 15.6093 4.28571 15.9031 4.28571 16.2798C4.28571 16.6565 4.57951 16.9503 4.95619 16.9503Z" fill="white"/>
</svg>
