<svg width="44" height="44" viewBox="0 0 44 44" fill="none" xmlns="http://www.w3.org/2000/svg">
<mask id="mask0_1624_7658" style="mask-type:alpha" maskUnits="userSpaceOnUse" x="0" y="0" width="44" height="44">
<rect width="44" height="44" fill="#C4C4C4"/>
</mask>
<g mask="url(#mask0_1624_7658)">
</g>
<path d="M18.2558 27.9715H20.0262C20.7419 27.9715 21.111 27.6024 21.111 26.8867V16.5206C21.111 15.7899 20.7419 15.4433 20.0262 15.4358H18.2558C17.5402 15.4358 17.171 15.8049 17.171 16.5206V26.8867C17.1635 27.6024 17.5326 27.9715 18.2558 27.9715ZM23.9813 27.9715H25.7441C26.4598 27.9715 26.8289 27.6024 26.8289 26.8867V16.5206C26.8289 15.7899 26.4598 15.4358 25.7441 15.4358H23.9813C23.2581 15.4358 22.8965 15.8049 22.8965 16.5206V26.8867C22.8965 27.6024 23.2581 27.9715 23.9813 27.9715Z" fill="#00599A"/>
</svg>
