<svg width="44" height="44" viewBox="0 0 44 44" fill="none" xmlns="http://www.w3.org/2000/svg">
<mask id="mask0_1668_22917" style="mask-type:alpha" maskUnits="userSpaceOnUse" x="0" y="0" width="44" height="44">
<rect width="44" height="44" fill="#C4C4C4"/>
</mask>
<g mask="url(#mask0_1668_22917)">
</g>
<path d="M20.742 26.3141C21.9398 26.3141 23.0623 25.9525 23.9964 25.3348L27.2961 28.642C27.5146 28.8529 27.7933 28.9584 28.0946 28.9584C28.7199 28.9584 29.1795 28.4687 29.1795 27.851C29.1795 27.5647 29.0815 27.2859 28.8706 27.075L25.5935 23.7829C26.2715 22.8186 26.6708 21.6509 26.6708 20.3853C26.6708 17.1233 24.004 14.4564 20.742 14.4564C17.4875 14.4564 14.8131 17.1233 14.8131 20.3853C14.8131 23.6473 17.48 26.3141 20.742 26.3141ZM20.742 24.7321C18.3538 24.7321 16.3951 22.7734 16.3951 20.3853C16.3951 17.9972 18.3538 16.0385 20.742 16.0385C23.1301 16.0385 25.0888 17.9972 25.0888 20.3853C25.0888 22.7734 23.1301 24.7321 20.742 24.7321Z" fill="white"/>
</svg>
