<svg width="101" height="24" viewBox="0 0 101 24" fill="none" xmlns="http://www.w3.org/2000/svg">
<path d="M7.72615 20.4834H-0.00012207V19.8764H2.36191L5.44138 4.03752H3.31114V3.32008H11.1036V4.03752H8.6533L5.58487 19.8764H7.72615V20.4834ZM18.267 20.4834H10.0109V19.8764H12.4392L7.40606 11.5099L15.5738 3.9713H12.98V3.32008H18.9182V3.9713H16.7769L10.033 10.2627L16.0043 19.8764H18.267V20.4834Z" fill="white"/>
<path d="M18.7637 13.9713C18.8341 11.3733 19.8191 8.88349 21.5451 6.94041C22.4704 5.76138 23.6179 4.77517 24.9226 4.03755C26.1062 3.38654 27.4349 3.04486 28.7857 3.04417C29.638 3.01924 30.4854 3.18236 31.2675 3.52192C32.0496 3.86148 32.7474 4.36915 33.3111 5.00885C34.5275 6.37376 35.1613 8.16048 35.0771 9.98677C34.9842 12.5451 34.0048 14.9915 32.3067 16.9073C30.1544 19.5784 27.693 20.8918 24.9557 20.8918C24.1086 20.9178 23.2662 20.7572 22.488 20.4215C21.7098 20.0858 21.0149 19.5832 20.4524 18.9492C19.2721 17.5678 18.6676 15.7858 18.7637 13.9713ZM28.4215 3.60708C27.4303 3.58183 26.4696 3.95102 25.7504 4.63357C24.8894 5.54331 24.241 6.63278 23.852 7.82342C23.3211 9.22903 22.9076 10.6762 22.6158 12.1501C22.3518 13.477 22.2151 14.826 22.2074 16.1788C22.2074 18.872 23.3111 20.2075 25.3641 20.2075C27.4171 20.2075 28.8961 18.7837 29.9778 15.925C30.4732 14.5522 30.8427 13.1373 31.0816 11.6976C31.3459 10.3629 31.49 9.00723 31.512 7.64682C31.5231 4.9647 30.4855 3.60708 28.4215 3.60708Z" fill="white"/>
<path d="M36.2692 20.4834V19.8764H38.3773L41.4789 4.03752H39.3486V3.32008H45.5517L46.7328 14.6004H46.9756L52.5826 3.32008H58.6422V4.03752H56.2913L53.1897 19.9316H55.3972V20.5386H47.7813V19.9316H49.9888L52.98 4.69978H52.6489L44.8233 20.4834H44.0506L42.406 4.69978H42.1522L39.1389 19.8764H41.3464V20.4834H36.2692Z" fill="white"/>
<path d="M64.7681 20.4834H57.8255V19.8764H59.437L62.5054 4.03752H60.3641V3.38631H67.8917C71.6224 3.38631 73.4767 4.766 73.4767 7.52538C73.5244 8.40444 73.3081 9.27768 72.8557 10.0329C72.4034 10.7882 71.7356 11.3909 70.9381 11.7638C70.0807 12.1642 69.1634 12.4215 68.2228 12.5254C67.6047 12.5916 66.5451 12.6358 65.0551 12.6358H64.0838L62.6047 19.8543H64.8122L64.7681 20.4834ZM64.2052 11.8852H65.4193C66.084 11.9108 66.7495 11.8701 67.4061 11.7638C67.8928 11.6759 68.3359 11.4272 68.6643 11.0574C69.162 10.5777 69.54 9.98797 69.7681 9.33554C70.0347 8.56557 70.1654 7.75513 70.1544 6.94039C70.2064 6.51234 70.1621 6.07807 70.0246 5.66938C69.8871 5.26069 69.6599 4.88792 69.3597 4.57836C68.4994 4.08837 67.5086 3.87634 66.5231 3.9713H65.6842L64.2052 11.8852Z" fill="white"/>
<path d="M74.5694 20.4834H69.8343V19.8764H71.2581L81.9756 3H82.8586L83.2228 19.8764H85.5517V20.4834H77.8255V19.8764H80.1102L80.033 15.2406H75.0551L72.0528 19.8764H74.5694V20.4834ZM80.0109 14.5342L79.8564 7.7351L75.4414 14.5894L80.0109 14.5342Z" fill="white"/>
<path d="M88.5981 20.4835H88.0573L88.7085 15.6049H89.5253C89.6344 16.8686 90.1317 18.0676 90.9491 19.0375C91.3122 19.4149 91.7529 19.7091 92.2407 19.8996C92.7286 20.0902 93.2519 20.1726 93.7747 20.1413C94.8017 20.1713 95.7997 19.799 96.5562 19.1038C96.9096 18.7878 97.191 18.3995 97.3814 17.9654C97.5719 17.5312 97.6668 17.0612 97.6599 16.5872C97.6528 16.0016 97.4681 15.432 97.1301 14.9537C96.7538 14.4404 96.2673 14.018 95.7063 13.7174L93.4988 12.6137C92.5432 12.1771 91.6696 11.5798 90.916 10.8477C90.2637 10.0381 89.9335 9.01611 89.9888 7.97793C89.9769 7.3224 90.0946 6.67097 90.3352 6.06106C90.5757 5.45114 90.9344 4.89475 91.3906 4.42385C91.8494 3.9573 92.4005 3.59164 93.0087 3.35027C93.6169 3.10889 94.2688 2.99711 94.9226 3.02208C95.5731 2.98302 96.2242 3.08845 96.8292 3.33081C97.4341 3.57317 97.9779 3.94645 98.4215 4.42385L99.6798 3.3201H100.044L99.3376 7.88963H98.6643C98.2339 5.14129 97.0639 3.72848 95.033 3.72848C94.1357 3.70569 93.2581 3.9943 92.5495 4.54526C92.2543 4.785 92.0168 5.088 91.8544 5.43188C91.692 5.77576 91.6089 6.15173 91.6114 6.53202C91.5896 7.03063 91.7639 7.51795 92.097 7.88963C92.5227 8.2844 93.0114 8.60523 93.5429 8.83886L95.916 10.042C96.9615 10.4969 97.8651 11.2252 98.5319 12.1501C99.0847 13.0236 99.3652 14.0417 99.3376 15.0751C99.3696 15.851 99.2465 16.6255 98.9755 17.3533C98.7045 18.0811 98.291 18.7475 97.7593 19.3135C97.2073 19.8792 96.5404 20.3198 95.8034 20.6055C95.0665 20.8911 94.2768 21.0151 93.4877 20.9691C92.836 21.0126 92.1833 20.9013 91.5828 20.6443C90.9824 20.3872 90.4513 19.9917 90.033 19.4901L88.5981 20.4835Z" fill="white"/>
</svg>
